<svg xmlns="http://www.w3.org/2000/svg" viewBox="0 0 245.53 64" fill="none" role="img" aria-label="देसी ऑक्शन — खेल यहीं से शुरू"><rect x="1" y="1" width="62" height="62" rx="17" fill="#E6B24A"/><g transform="translate(-2.25 0)"><path d="M13 16h10c9 0 16 7 16 16s-7 16-16 16H13V16Zm7 7v18h3a9 9 0 0 0 0-18h-3Z" fill="#0B1018"/><path d="M23 44h5v4h-5z" fill="#0B1018"/><path d="M30 48 43 16h7L37 48h-7Z" fill="#E6B24A" stroke="#E6B24A" stroke-width="5" stroke-linejoin="round"/><path d="M30 48 43 16h7L37 48h-7Z" fill="#0B1018"/><path d="m46.5 24 9 24h-7l-2-6h-8l3-7h3l-1.5-4 3.5-7Z" fill="#0B1018"/></g><path transform="translate(80.600 35.950) scale(0.017016 -0.017016)" fill="#FFFFFF" d="M661 1089H1168L1155 1276H647ZM990 1154H750V943L990 942ZM-25 1089H1188L1175 1276H-39ZM745 778 990 717V1157H745ZM1007 527H760V242L780 211L824 -143H1065L1007 231ZM573 270Q465 270 405.5 323.0Q346 376 346 483V497Q346 616 417.5 672.5Q489 729 650 729Q730 729 814.5 724.5Q899 720 990 711V888Q886 904 785.5 913.0Q685 922 592 922Q337 922 214.5 818.0Q92 714 92 498V477Q92 339 145.5 247.5Q199 156 297.0 110.5Q395 65 529 65Q626 65 696.5 89.5Q767 114 809 157L773 326Q736 299 687.0 284.5Q638 270 573 270Z"/><path transform="translate(100.015 35.950) scale(0.017016 -0.017016)" fill="#FFFFFF" d="M-1029 1778V1753L-814 1554Q-761 1504 -715.0 1466.0Q-669 1428 -622.5 1397.0Q-576 1366 -523.5 1339.0Q-471 1312 -405 1285V1237H-177V1266Q-208 1295 -261.5 1345.5Q-315 1396 -379.0 1457.5Q-443 1519 -507.5 1581.0Q-572 1643 -626.0 1694.5Q-680 1746 -713 1778Z"/><path transform="translate(100.151 35.950) scale(0.017016 -0.017016)" fill="#FFFFFF" d="M1257 1154H1009V0H1257ZM933 1089H1452L1438 1276H919ZM1347 1089 1334 1276H-44L-30 1089ZM558 665 598 465H1061V665ZM718 0V10L566 252Q526 314 493.0 358.5Q460 403 424.0 439.5Q388 476 339 513V614L54 664V457L165 449L422 0ZM556 1133H289Q355 1091 383.5 1031.5Q412 972 412 887V876Q412 761 352.5 712.5Q293 664 143 664H54L181 471L261 474Q478 483 572.5 573.0Q667 663 667 841V855Q667 950 640.5 1018.0Q614 1086 556 1133Z"/><path transform="translate(124.092 35.950) scale(0.017016 -0.017016)" fill="#FFFFFF" d="M398 0V1154H149V0ZM592 1089 578 1276H-46L-30 1089ZM-11 1787Q-200 1787 -298.0 1705.5Q-396 1624 -396 1487Q-396 1459 -393.0 1431.0Q-390 1403 -383 1371L-157 1346V1423Q-157 1509 -118.5 1548.0Q-80 1587 -4 1587Q74 1587 112.5 1541.0Q151 1495 151 1379V1250H390V1379Q390 1588 289.5 1687.5Q189 1787 -11 1787Z"/><path transform="translate(142.248 35.950) scale(0.017016 -0.017016)" fill="#E6B24A" d="M1956 0V1154H1707V0ZM2150 1089 2136 1276H1512L1527 1089ZM1603 1089 1589 1276H980L994 1089ZM1160 0H1409V1157H1160ZM52 312 66 93Q141 54 237.5 33.0Q334 12 447 12Q672 12 778.0 92.5Q884 173 884 323V334Q884 405 856.5 458.5Q829 512 762.5 550.0Q696 588 579 612L576 701Q683 706 747.5 739.0Q812 772 840.5 828.0Q869 884 869 959V972Q869 1073 825.5 1144.5Q782 1216 689.5 1254.5Q597 1293 451 1293Q347 1293 261.5 1275.5Q176 1258 109 1228L94 1017Q169 1052 249.0 1071.0Q329 1090 414 1090Q528 1090 575.5 1051.0Q623 1012 623 932V921Q623 868 599.5 834.5Q576 801 520.5 783.5Q465 766 368 763L220 758V566L380 561Q473 557 529.5 539.5Q586 522 611.5 487.5Q637 453 637 399V384Q637 326 613.0 289.0Q589 252 538.5 234.5Q488 217 408 217Q308 217 219.5 242.5Q131 268 52 312ZM565 720V593L708 561L714 584Q757 570 794.5 559.5Q832 549 876.5 544.0Q921 539 983 539H1247V738H979Q921 738 877.5 735.5Q834 733 796.5 728.5Q759 724 717 717L715 734ZM1932 1767H1726Q1726 1765 1726.0 1751.5Q1726 1738 1726 1737Q1726 1652 1687.5 1612.5Q1649 1573 1568 1573Q1487 1573 1449.0 1612.0Q1411 1651 1411 1737Q1411 1738 1411.0 1751.0Q1411 1764 1411 1767H1205Q1204 1751 1203.5 1740.0Q1203 1729 1203 1720Q1203 1557 1295.0 1478.0Q1387 1399 1568 1399Q1750 1399 1842.0 1478.0Q1934 1557 1934 1720Q1934 1728 1933.5 1739.5Q1933 1751 1932 1767Z"/><path transform="translate(178.066 35.950) scale(0.017016 -0.017016)" fill="#E6B24A" d="M1370 521Q1356 628 1300.5 685.5Q1245 743 1141 743Q1067 743 1018.5 714.5Q970 686 946 637L954 427Q972 485 1014.5 513.0Q1057 541 1117 541Q1179 541 1217.0 511.0Q1255 481 1267 420ZM973 1089H1211L1197 1276H959ZM2563 1154H2315V0H2563ZM2238 1089H2757L2743 1276H2224ZM-30 1089H1183L1169 1276H-44ZM713 0H962V1157H713ZM91 523Q91 328 180.0 236.0Q269 144 432 144Q509 144 563.5 164.5Q618 185 652.0 223.0Q686 261 702 314H730L718 492Q703 423 654.0 386.0Q605 349 519 349Q430 349 387.0 390.5Q344 432 344 531V549Q344 645 387.0 689.0Q430 733 515 733Q543 733 567.5 730.0Q592 727 617 721L602 914Q569 924 531.5 929.0Q494 934 450 934Q274 934 182.5 839.5Q91 745 91 551ZM2173 1276 2187 1089H2688L2674 1276ZM2052 0V15L1873 205Q1830 252 1788.5 289.5Q1747 327 1701.5 358.0Q1656 389 1598 416V498L1266 594V394L1412 380L1726 0ZM1327 787H1559Q1547 819 1541.5 853.0Q1536 887 1536 924V933Q1536 1021 1574.5 1061.5Q1613 1102 1690 1102Q1770 1102 1808.0 1056.0Q1846 1010 1846 902V871Q1846 715 1760.5 651.5Q1675 588 1477 588Q1441 588 1408.0 588.5Q1375 589 1340.5 590.5Q1306 592 1264 595L1387 403Q1429 401 1476.5 400.0Q1524 399 1569 399Q1833 399 1965.0 508.5Q2097 618 2097 856V894Q2097 1096 1996.0 1199.5Q1895 1303 1689 1303Q1497 1303 1396.0 1215.0Q1295 1127 1295 962V954Q1295 906 1302.5 865.0Q1310 824 1327 787Z"/><path transform="translate(224.229 35.950) scale(0.017016 -0.017016)" fill="#E6B24A" d="M1043 1154H795V0H1043ZM719 1089H1238L1224 1276H705ZM1138 1089 1124 1276H-47L-33 1089ZM894 792H322V590H894ZM202 240H413V792H198L76 708Q84 616 101.0 536.0Q118 456 143.5 383.0Q169 310 202 240Z"/><path transform="translate(81.100 51.650) scale(0.006068 -0.006068)" fill="#9FB0CC" d="M1470 1175H1281V0H1470ZM1188 1124H1683L1671 1269H1176ZM-16 1124H1582L1570 1269H-28ZM619 882Q619 978 593.0 1049.5Q567 1121 507 1160H301Q368 1123 397.0 1054.5Q426 986 426 904V892Q426 775 368.0 721.0Q310 667 172 667H68L154 522L249 523Q374 525 456.0 561.0Q538 597 578.5 672.5Q619 748 619 868ZM1194 71 1292 239V266Q1209 225 1112.5 205.5Q1016 186 916 187Q785 187 686.0 219.0Q587 251 512.0 319.5Q437 388 379 497L339 572L68 667V507L183 501L212 434Q273 297 365.5 205.5Q458 114 589.5 67.5Q721 21 897 21Q987 21 1063.5 33.5Q1140 46 1194 71ZM1042 361Q1137 361 1193.0 392.5Q1249 424 1270 480H1293L1287 619Q1267 568 1222.5 543.0Q1178 518 1104 518Q1016 518 977.0 553.0Q938 588 938 663V674Q938 745 977.5 780.5Q1017 816 1093 816Q1118 816 1141.5 813.5Q1165 811 1191 806L1178 956Q1150 964 1119.0 967.5Q1088 971 1051 971Q896 971 821.0 892.5Q746 814 746 674V658Q746 512 824.5 436.5Q903 361 1042 361Z"/><path transform="translate(91.051 51.650) scale(0.006068 -0.006068)" fill="#9FB0CC" d="M-985 1776V1756L-753 1543Q-703 1497 -659.5 1461.5Q-616 1426 -571.5 1395.0Q-527 1364 -478.0 1335.5Q-429 1307 -369 1276V1238H-192V1261Q-224 1291 -278.5 1342.0Q-333 1393 -397.5 1454.5Q-462 1516 -527.5 1578.0Q-593 1640 -648.0 1692.0Q-703 1744 -737 1776Z"/><path transform="translate(91.057 51.650) scale(0.006068 -0.006068)" fill="#9FB0CC" d="M1311 1175H1122V0H1311ZM1029 1124H1524L1512 1269H1017ZM-28 1124H1418L1406 1269H-40ZM459 892Q292 892 200.0 798.0Q108 704 108 524Q108 389 157.0 257.5Q206 126 301 0H526V3Q418 141 363.0 263.5Q308 386 308 518Q308 623 352.0 677.5Q396 732 481 732Q559 732 596.0 685.0Q633 638 636 538L642 281H820L826 538Q828 639 867.5 684.5Q907 730 980 730Q1039 730 1075.5 701.5Q1112 673 1129 624L1141 805Q1117 846 1073.5 868.5Q1030 891 963 891Q871 891 811.0 846.5Q751 802 732 719H724Q701 801 637.5 846.5Q574 892 459 892Z"/><path transform="translate(103.690 51.650) scale(0.006068 -0.006068)" fill="#9FB0CC" d="M1089 1175H900V0H1089ZM806 1124H1301L1289 1269H794ZM-43 1269 -31 1124H1210L1198 1269ZM509 1155H302Q351 1122 374.0 1070.0Q397 1018 397 943V933Q397 873 373.5 833.5Q350 794 296.5 775.0Q243 756 153 756H103L163 612L242 614Q424 617 509.0 691.0Q594 765 594 914V927Q594 1003 574.0 1060.5Q554 1118 509 1155ZM95 607V598Q95 402 211.5 294.0Q328 186 535 186Q691 186 773.0 236.0Q855 286 888 374H908L905 544Q880 450 799.0 399.5Q718 349 573 349Q473 349 408.5 380.5Q344 412 312.5 469.0Q281 526 281 601V711L103 756Q99 714 97.0 678.5Q95 643 95 607Z"/><path transform="translate(111.336 51.650) scale(0.006068 -0.006068)" fill="#9FB0CC" d="M656 1124H1127L1115 1269H644ZM940 1175H758V951L940 950ZM1142 1124 1130 1269H-36L-24 1124ZM755 1168V824L940 776V1168ZM236 444 366 518Q337 547 322.0 576.0Q307 605 307 642V649Q307 722 371.5 760.0Q436 798 599 798Q685 798 770.0 792.0Q855 786 940 773V917Q845 934 746.5 943.5Q648 953 563 953Q319 953 215.5 879.5Q112 806 112 674V664Q112 596 144.5 542.0Q177 488 236 444ZM879 -174 895 -16Q839 -30 781.0 -37.5Q723 -45 658 -45Q509 -45 413.5 10.5Q318 66 318 189V197Q318 305 385.0 357.5Q452 410 576 410Q699 410 756.0 363.5Q813 317 813 211V148H987Q994 175 997.5 202.5Q1001 230 1001 257Q1001 355 956.5 424.5Q912 494 821.5 531.0Q731 568 592 568Q503 568 429.5 550.5Q356 533 306 502L285 490Q205 446 164.5 372.5Q124 299 124 199V188Q124 54 191.0 -33.5Q258 -121 374.0 -163.5Q490 -206 636 -206Q711 -206 769.5 -197.5Q828 -189 879 -174Z"/><path transform="translate(118.010 51.650) scale(0.006068 -0.006068)" fill="#9FB0CC" d="M360 0V1175H170V0ZM572 1124 560 1269H-44L-29 1124ZM-8 1780Q-182 1780 -269.0 1703.5Q-356 1627 -356 1495Q-356 1464 -353.5 1435.0Q-351 1406 -346 1371L-174 1351V1444Q-174 1538 -131.0 1582.5Q-88 1627 -4 1627Q83 1627 127.0 1578.0Q171 1529 171 1414V1248H353V1414Q353 1605 261.0 1692.5Q169 1780 -8 1780ZM552 1472Q609 1472 636.0 1502.5Q663 1533 663 1582V1591Q663 1641 636.0 1672.5Q609 1704 552 1704Q495 1704 469.0 1672.5Q443 1641 443 1591V1582Q443 1533 469.0 1502.5Q495 1472 552 1472Z"/><path transform="translate(124.867 51.650) scale(0.006068 -0.006068)" fill="#9FB0CC" d="M1201 1175H1012V0H1201ZM919 1124H1414L1402 1269H907ZM1307 1124 1296 1269H-41L-29 1124ZM510 654 545 498H1049V654ZM674 0V8L504 275Q464 336 435.0 378.5Q406 421 375.5 457.0Q345 493 304 533V609L55 648V486L168 480L456 0ZM507 1160H302Q370 1117 402.5 1049.5Q435 982 435 889V880Q435 752 370.5 700.0Q306 648 147 648H55L155 499L234 501Q443 508 535.5 596.0Q628 684 628 857V869Q628 970 598.5 1042.5Q569 1115 507 1160Z"/><path transform="translate(133.186 51.650) scale(0.006068 -0.006068)" fill="#9FB0CC" d="M-985 1776V1756L-753 1543Q-703 1497 -659.5 1461.5Q-616 1426 -571.5 1395.0Q-527 1364 -478.0 1335.5Q-429 1307 -369 1276V1238H-192V1261Q-224 1291 -278.5 1342.0Q-333 1393 -397.5 1454.5Q-462 1516 -527.5 1578.0Q-593 1640 -648.0 1692.0Q-703 1744 -737 1776Z"/><path transform="translate(136.832 51.650) scale(0.006068 -0.006068)" fill="#9FB0CC" d="M1330 1175H1141V0H1330ZM1048 1124H1543L1531 1269H1036ZM982 1269 994 1124H1492L1480 1269ZM837 0V12L637 224Q596 268 560.5 300.5Q525 333 485.5 361.5Q446 390 393 421V482L96 561V399L246 388L593 0ZM889 898Q889 1094 794.5 1194.0Q700 1294 507 1294Q327 1294 232.5 1210.5Q138 1127 138 963V954Q138 897 149.0 845.5Q160 794 189 748H375Q349 792 337.0 840.5Q325 889 325 944V951Q325 1049 371.5 1094.5Q418 1140 509 1140Q604 1140 650.5 1085.5Q697 1031 697 908V872Q697 754 656.0 684.5Q615 615 528.5 585.0Q442 555 305 555Q254 555 205.5 556.5Q157 558 96 562L201 410Q244 407 284.5 406.0Q325 405 367 405Q626 405 757.5 512.0Q889 619 889 859Z"/><path transform="translate(145.971 51.650) scale(0.006068 -0.006068)" fill="#9FB0CC" d="M-707 -176H-898Q-823 -375 -690.0 -481.0Q-557 -587 -350 -587Q-166 -587 -77.5 -507.5Q11 -428 11 -282V-270Q11 -137 -65.0 -59.5Q-141 18 -291 18Q-358 18 -409.5 5.0Q-461 -8 -506 -31L-521 -193Q-470 -168 -417.0 -152.0Q-364 -136 -311 -136Q-236 -136 -203.5 -170.5Q-171 -205 -171 -274V-282Q-171 -355 -214.5 -395.0Q-258 -435 -355 -435Q-479 -435 -562.0 -369.0Q-645 -303 -707 -176Z"/><path transform="translate(145.940 51.650) scale(0.006068 -0.006068)" fill="#9FB0CC" d="M1107 279 1124 432Q1099 423 1075.5 419.0Q1052 415 1027 415Q987 415 956.0 431.0Q925 447 907.5 483.0Q890 519 890 579V597Q890 661 908.5 699.5Q927 738 960.5 755.5Q994 773 1039 773Q1104 773 1145.5 746.0Q1187 719 1214.0 644.0Q1241 569 1265 426L1305 179H1496L1451 437Q1418 625 1371.5 733.0Q1325 841 1245.5 886.0Q1166 931 1035 931Q933 931 861.0 893.5Q789 856 751.0 782.0Q713 708 713 598V576Q713 467 747.0 397.0Q781 327 844.0 293.5Q907 260 993 260Q1025 260 1054.0 264.5Q1083 269 1107 279ZM784 1269 796 1124H1594L1582 1269ZM543 786 547 639H827L828 786ZM861 1124 849 1269H-41L-30 1124ZM698 0V8L509 290Q471 345 441.0 383.0Q411 421 378.0 454.5Q345 488 299 531V585L55 648V487L168 479L474 0ZM574 1160H369Q434 1117 466.0 1049.0Q498 981 498 891V882Q498 765 429.5 706.5Q361 648 209 648H55L171 493L262 494Q482 499 586.5 591.5Q691 684 691 866V876Q691 967 662.0 1041.5Q633 1116 574 1160Z"/></svg>
